<svg width="20" height="22" viewBox="0 0 20 22" fill="none" xmlns="http://www.w3.org/2000/svg">
<path fill-rule="evenodd" clip-rule="evenodd" d="M2 4C3.10457 4 4 3.10457 4 2C4 0.895431 3.10457 0 2 0C0.895431 0 0 0.895431 0 2C0 3.10457 0.895431 4 2 4ZM6.5 12C8.98528 12 11 9.98528 11 7.5C11 6.52275 10.6885 5.61826 10.1594 4.88041L14.5646 4.02308C15.3072 3.87856 16 4.43116 16 5.16794V7.8187C16.5518 8.40836 17.0091 9.07288 17.3467 9.79533H18.8C19.4627 9.79533 20 10.3181 20 10.9629V15.4385C20 16.0833 19.4627 16.606 18.8 16.606H16.7977C16.5611 16.9601 16.294 17.2955 16 17.6097V20.8324C16 21.4772 15.4627 22 14.8 22H11.2C10.5373 22 10 21.4772 10 20.8324V20.4503C9.67139 20.4817 9.33772 20.4978 9 20.4978C8.66228 20.4978 8.32861 20.4817 8 20.4503V20.8325C8 21.4773 7.46274 22 6.8 22H3.2C2.53726 22 2 21.4773 2 20.8325V17.6097C0.760812 16.2852 0 14.5839 0 12.7142C0 10.8253 0.760718 9.12835 2.01015 7.80471C2.16684 10.1479 4.11713 12 6.5 12ZM10 7.5C10 9.433 8.433 11 6.5 11C4.567 11 3 9.433 3 7.5C3 5.567 4.567 4 6.5 4C8.433 4 10 5.567 10 7.5Z" fill="#003E80"/>
</svg>
