<svg width="158" height="158" viewBox="0 0 158 158" fill="none" xmlns="http://www.w3.org/2000/svg">
<circle cx="79" cy="79" r="79" fill="#D2F1FE"/>
<path fill-rule="evenodd" clip-rule="evenodd" d="M99.309 45.4273H57.2364C56.7895 45.4273 56.4273 45.7895 56.4273 46.2364V75.3635C56.4273 75.8104 56.7895 76.1726 57.2364 76.1726H99.309C99.7558 76.1726 100.118 75.8104 100.118 75.3635V46.2364C100.118 45.7895 99.7558 45.4273 99.309 45.4273ZM57.2364 43C55.449 43 54 44.449 54 46.2364V75.3635C54 77.1509 55.449 78.5999 57.2364 78.5999H99.309C101.096 78.5999 102.545 77.1509 102.545 75.3635V46.2364C102.545 44.449 101.096 43 99.309 43H57.2364Z" fill="white"/>
<path fill-rule="evenodd" clip-rule="evenodd" d="M74.2368 71.7525C73.3974 71.7648 72.6112 71.3426 72.158 70.6361L66.8173 62.3107C66.4989 61.8144 65.7736 61.8144 65.4552 62.3107L57.3626 74.9259C57.0171 75.4644 57.4038 76.1719 58.0436 76.1719H74.2289L74.2459 76.1718C74.2743 76.1713 74.3027 76.1713 74.3311 76.1719L74.35 76.172H98.8585C99.4876 76.172 99.876 75.4856 99.5521 74.9464L87.2979 54.5432C86.9836 54.0199 86.225 54.0199 85.9107 54.5432L76.2818 70.5752C75.8496 71.2948 75.0762 71.7401 74.2368 71.7525ZM74.201 69.3255L83.8299 53.2935C85.0872 51.2001 88.1214 51.2001 89.3787 53.2935L101.633 73.6966C102.929 75.8537 101.375 78.5993 98.8585 78.5993H74.35C74.3284 78.5993 74.3069 78.5991 74.2854 78.5987C74.2775 78.5988 74.2696 78.5989 74.2617 78.599C74.2508 78.5991 74.2399 78.5992 74.2289 78.5992H58.0436C55.4845 78.5992 53.9378 75.7693 55.3195 73.6153L63.4122 61.0001C64.6857 59.0149 67.5868 59.0149 68.8603 61.0001L74.201 69.3255Z" fill="white"/>
<path d="M70.9908 51.4959C70.9908 53.0598 69.7229 54.3277 68.159 54.3277C66.595 54.3277 65.3271 53.0598 65.3271 51.4959C65.3271 49.9319 66.595 48.6641 68.159 48.6641C69.7229 48.6641 70.9908 49.9319 70.9908 51.4959Z" fill="white"/>
<path d="M36.0245 103H27.2405C27.1018 103 27.0325 102.931 27.0325 102.792V101.672C27.0325 101.533 27.1018 101.464 27.2405 101.464H28.4085V93.048H27.2405C27.1018 93.048 27.0325 92.9787 27.0325 92.84V91.72C27.0325 91.5813 27.1018 91.512 27.2405 91.512H31.3365C31.5072 91.512 31.5925 91.592 31.5925 91.752V92.808C31.5925 92.968 31.5072 93.048 31.3365 93.048H30.2005V101.464H34.5685V99.912C34.5685 99.7733 34.6378 99.704 34.7765 99.704H36.0565C36.1952 99.704 36.2645 99.7733 36.2645 99.912V102.76C36.2645 102.92 36.1845 103 36.0245 103ZM41.0753 101.64C41.6726 101.629 42.1739 101.4 42.5793 100.952C42.9846 100.504 43.1873 99.88 43.1873 99.08C43.1873 98.2587 42.9846 97.624 42.5793 97.176C42.1739 96.728 41.6726 96.504 41.0753 96.504C40.4353 96.504 39.9126 96.7387 39.5073 97.208C39.1019 97.6773 38.8993 98.3067 38.8993 99.096C38.8993 99.864 39.1019 100.483 39.5073 100.952C39.9126 101.421 40.4353 101.651 41.0753 101.64ZM45.7153 103H44.0513C43.5819 103 43.3473 102.765 43.3473 102.296V101.512H43.2993C42.8406 102.579 41.9926 103.112 40.7552 103.112C39.6672 103.101 38.7979 102.723 38.1473 101.976C37.4966 101.229 37.1713 100.259 37.1713 99.064C37.1713 97.816 37.5019 96.8293 38.1633 96.104C38.8246 95.3787 39.6939 95.016 40.7713 95.016C41.4539 95.016 42.0086 95.1493 42.4353 95.416C42.8619 95.6827 43.1393 95.976 43.2673 96.296H43.2993V95.352C43.2993 95.2027 43.3686 95.128 43.5073 95.128H44.6593C44.7979 95.128 44.8673 95.2027 44.8673 95.352V101.592H45.7153C45.8539 101.592 45.9233 101.661 45.9233 101.8V102.792C45.9233 102.931 45.8539 103 45.7153 103ZM50.9034 101.64C51.522 101.651 52.0287 101.421 52.4234 100.952C52.818 100.483 53.0154 99.848 53.0154 99.048C53.0154 98.248 52.8127 97.624 52.4074 97.176C52.002 96.728 51.5007 96.4987 50.9034 96.488C50.2634 96.488 49.7407 96.7173 49.3354 97.176C48.93 97.6347 48.7274 98.2533 48.7274 99.032C48.7274 99.8107 48.93 100.44 49.3354 100.92C49.7407 101.4 50.2634 101.64 50.9034 101.64ZM55.5274 103H53.8794C53.3994 103 53.1594 102.765 53.1594 102.296V101.64H53.1274C52.9994 101.981 52.7114 102.312 52.2634 102.632C51.8154 102.952 51.2607 103.112 50.5994 103.112C49.522 103.112 48.6527 102.744 47.9914 102.008C47.33 101.272 46.9994 100.275 46.9994 99.016C46.9994 97.832 47.33 96.8667 47.9914 96.12C48.6527 95.3733 49.5327 95.0053 50.6314 95.016C51.2714 95.0053 51.794 95.1387 52.1994 95.416C52.6047 95.6933 52.8767 95.992 53.0154 96.312H53.0314C53.0207 96.12 53.0154 95.9333 53.0154 95.752V92.92H52.1834C52.034 92.92 51.9594 92.8507 51.9594 92.712V91.72C51.9594 91.5813 52.034 91.512 52.1834 91.512H54.5194C54.658 91.512 54.7274 91.5813 54.7274 91.72V101.592H55.5274C55.666 101.592 55.7354 101.661 55.7354 101.8V102.792C55.7354 102.931 55.666 103 55.5274 103ZM60.7471 101.64C61.3658 101.651 61.8725 101.421 62.2671 100.952C62.6618 100.483 62.8591 99.848 62.8591 99.048C62.8591 98.248 62.6565 97.624 62.2511 97.176C61.8458 96.728 61.3445 96.4987 60.7471 96.488C60.1071 96.488 59.5845 96.7173 59.1791 97.176C58.7738 97.6347 58.5711 98.2533 58.5711 99.032C58.5711 99.8107 58.7738 100.44 59.1791 100.92C59.5845 101.4 60.1071 101.64 60.7471 101.64ZM65.3711 103H63.7231C63.2431 103 63.0031 102.765 63.0031 102.296V101.64H62.9711C62.8431 101.981 62.5551 102.312 62.1071 102.632C61.6591 102.952 61.1045 103.112 60.4431 103.112C59.3658 103.112 58.4965 102.744 57.8351 102.008C57.1738 101.272 56.8431 100.275 56.8431 99.016C56.8431 97.832 57.1738 96.8667 57.8351 96.12C58.4965 95.3733 59.3765 95.0053 60.4751 95.016C61.1151 95.0053 61.6378 95.1387 62.0431 95.416C62.4485 95.6933 62.7205 95.992 62.8591 96.312H62.8751C62.8645 96.12 62.8591 95.9333 62.8591 95.752V92.92H62.0271C61.8778 92.92 61.8031 92.8507 61.8031 92.712V91.72C61.8031 91.5813 61.8778 91.512 62.0271 91.512H64.3631C64.5018 91.512 64.5711 91.5813 64.5711 91.72V101.592H65.3711C65.5098 101.592 65.5791 101.661 65.5791 101.8V102.792C65.5791 102.931 65.5098 103 65.3711 103ZM70.5909 101.64C71.1882 101.629 71.6895 101.4 72.0949 100.952C72.5002 100.504 72.7029 99.88 72.7029 99.08C72.7029 98.2587 72.5002 97.624 72.0949 97.176C71.6895 96.728 71.1882 96.504 70.5909 96.504C69.9509 96.504 69.4282 96.7387 69.0229 97.208C68.6175 97.6773 68.4149 98.3067 68.4149 99.096C68.4149 99.864 68.6175 100.483 69.0229 100.952C69.4282 101.421 69.9509 101.651 70.5909 101.64ZM75.2309 103H73.5669C73.0975 103 72.8629 102.765 72.8629 102.296V101.512H72.8149C72.3562 102.579 71.5082 103.112 70.2709 103.112C69.1829 103.101 68.3135 102.723 67.6629 101.976C67.0122 101.229 66.6869 100.259 66.6869 99.064C66.6869 97.816 67.0175 96.8293 67.6789 96.104C68.3402 95.3787 69.2095 95.016 70.2869 95.016C70.9695 95.016 71.5242 95.1493 71.9509 95.416C72.3775 95.6827 72.6549 95.976 72.7829 96.296H72.8149V95.352C72.8149 95.2027 72.8842 95.128 73.0229 95.128H74.1749C74.3135 95.128 74.3829 95.2027 74.3829 95.352V101.592H75.2309C75.3695 101.592 75.4389 101.661 75.4389 101.8V102.792C75.4389 102.931 75.3695 103 75.2309 103ZM88.851 103H87.203C86.723 103 86.483 102.765 86.483 102.296V101.752H86.435C85.955 102.659 85.1657 103.112 84.067 103.112C83.2137 103.112 82.531 102.856 82.019 102.344C81.507 101.832 81.2563 101.155 81.267 100.312V96.536H80.419C80.2803 96.536 80.211 96.4667 80.211 96.328V95.336C80.211 95.1973 80.2803 95.128 80.419 95.128H82.291C82.771 95.128 83.011 95.3627 83.011 95.832V99.8C83.011 100.995 83.5177 101.592 84.531 101.592C84.9257 101.592 85.267 101.496 85.555 101.304C85.843 101.112 86.035 100.925 86.131 100.744C86.227 100.573 86.275 100.461 86.275 100.408V96.536H85.491C85.363 96.536 85.299 96.4667 85.299 96.328V95.336C85.299 95.1973 85.363 95.128 85.491 95.128H87.811C87.9497 95.128 88.019 95.1973 88.019 95.336V101.592H88.851C88.9897 101.592 89.059 101.661 89.059 101.8V102.792C89.059 102.931 88.9897 103 88.851 103ZM94.7484 101.64C95.3777 101.651 95.895 101.421 96.3004 100.952C96.7057 100.483 96.9084 99.864 96.9084 99.096C96.9084 98.3067 96.7057 97.6773 96.3004 97.208C95.895 96.7387 95.3777 96.504 94.7484 96.504C94.1404 96.504 93.6337 96.728 93.2284 97.176C92.823 97.624 92.6204 98.2853 92.6204 99.16C92.6204 99.9387 92.8337 100.547 93.2604 100.984C93.687 101.421 94.183 101.64 94.7484 101.64ZM93.7084 106.6H90.0924C89.9537 106.6 89.8844 106.531 89.8844 106.392V105.4C89.8844 105.261 89.9537 105.192 90.0924 105.192H90.9244V96.536H90.1564C90.0177 96.536 89.9484 96.4667 89.9484 96.328V95.336C89.9484 95.1973 90.0177 95.128 90.1564 95.128H92.3004C92.439 95.128 92.5084 95.1973 92.5084 95.336L92.4924 96.36H92.5404C92.679 96.0293 92.9617 95.7253 93.3884 95.448C93.815 95.1707 94.3644 95.0267 95.0364 95.016C96.1137 95.016 96.983 95.3787 97.6444 96.104C98.3057 96.8293 98.6364 97.816 98.6364 99.064C98.6364 100.259 98.311 101.229 97.6604 101.976C97.0097 102.723 96.1404 103.101 95.0524 103.112C94.4124 103.112 93.8844 102.979 93.4684 102.712C93.0524 102.445 92.7697 102.147 92.6204 101.816H92.5724C92.6044 102.147 92.6204 102.381 92.6204 102.52V105.192H93.7084C93.847 105.192 93.9164 105.261 93.9164 105.4V106.392C93.9164 106.531 93.847 106.6 93.7084 106.6ZM104.545 101.64C105.175 101.651 105.692 101.421 106.097 100.952C106.503 100.483 106.705 99.864 106.705 99.096C106.705 98.3067 106.503 97.6773 106.097 97.208C105.692 96.7387 105.175 96.504 104.545 96.504C103.937 96.504 103.431 96.728 103.025 97.176C102.62 97.624 102.417 98.2853 102.417 99.16C102.417 99.9387 102.631 100.547 103.057 100.984C103.484 101.421 103.98 101.64 104.545 101.64ZM103.505 106.6H99.8893C99.7506 106.6 99.6813 106.531 99.6813 106.392V105.4C99.6813 105.261 99.7506 105.192 99.8893 105.192H100.721V96.536H99.9533C99.8146 96.536 99.7453 96.4667 99.7453 96.328V95.336C99.7453 95.1973 99.8146 95.128 99.9533 95.128H102.097C102.236 95.128 102.305 95.1973 102.305 95.336L102.289 96.36H102.337C102.476 96.0293 102.759 95.7253 103.185 95.448C103.612 95.1707 104.161 95.0267 104.833 95.016C105.911 95.016 106.78 95.3787 107.441 96.104C108.103 96.8293 108.433 97.816 108.433 99.064C108.433 100.259 108.108 101.229 107.457 101.976C106.807 102.723 105.937 103.101 104.849 103.112C104.209 103.112 103.681 102.979 103.265 102.712C102.849 102.445 102.567 102.147 102.417 101.816H102.369C102.401 102.147 102.417 102.381 102.417 102.52V105.192H103.505C103.644 105.192 103.713 105.261 103.713 105.4V106.392C103.713 106.531 103.644 106.6 103.505 106.6ZM115.542 98.232H119.542C119.521 97.72 119.35 97.2933 119.03 96.952C118.71 96.6107 118.246 96.44 117.638 96.44C117.094 96.44 116.63 96.5893 116.246 96.888C115.862 97.1867 115.627 97.6347 115.542 98.232ZM120.998 99.384H115.494C115.569 100.12 115.83 100.68 116.278 101.064C116.726 101.448 117.259 101.64 117.878 101.64C118.454 101.64 118.961 101.507 119.398 101.24C119.835 100.973 120.123 100.728 120.262 100.504C120.337 100.376 120.438 100.365 120.566 100.472L121.174 101.112C121.238 101.176 121.27 101.24 121.27 101.304C121.27 101.347 121.254 101.389 121.222 101.432C121.158 101.539 121.051 101.672 120.902 101.832C120.753 101.992 120.539 102.179 120.262 102.392C119.985 102.605 119.622 102.776 119.174 102.904C118.726 103.043 118.246 103.112 117.734 103.112C116.593 103.123 115.638 102.755 114.87 102.008C114.102 101.261 113.713 100.269 113.702 99.032C113.702 97.8053 114.091 96.8293 114.87 96.104C115.649 95.3787 116.55 95.016 117.574 95.016C118.779 95.016 119.691 95.3733 120.31 96.088C120.929 96.8027 121.233 97.8213 121.222 99.144C121.222 99.304 121.147 99.384 120.998 99.384ZM131.155 103H129.299C128.808 103 128.563 102.765 128.563 102.296V98.328C128.563 97.1333 128.061 96.536 127.059 96.536C126.653 96.536 126.307 96.6373 126.019 96.84C125.72 97.0427 125.528 97.2293 125.443 97.4C125.357 97.5707 125.315 97.6773 125.315 97.72V101.592H126.067C126.205 101.592 126.275 101.661 126.275 101.8V102.792C126.275 102.931 126.205 103 126.067 103H122.723C122.584 103 122.515 102.931 122.515 102.792V101.8C122.515 101.661 122.584 101.592 122.723 101.592H123.555V96.536H122.723C122.584 96.536 122.515 96.4667 122.515 96.328V95.336C122.515 95.1973 122.584 95.128 122.723 95.128H124.883C125.021 95.128 125.091 95.1973 125.091 95.336L125.075 96.392H125.123L125.187 96.312C125.219 96.248 125.245 96.1947 125.267 96.152C125.277 96.1093 125.315 96.056 125.379 95.992C125.443 95.9067 125.501 95.8427 125.555 95.8C125.608 95.7573 125.677 95.6987 125.763 95.624C125.848 95.5493 125.933 95.4853 126.019 95.432C126.104 95.3787 126.2 95.3253 126.307 95.272C126.435 95.2187 126.563 95.1707 126.691 95.128C126.819 95.0853 126.957 95.0587 127.107 95.048C127.267 95.0267 127.432 95.016 127.603 95.016C128.467 95.016 129.133 95.272 129.603 95.784C130.072 96.296 130.307 96.9733 130.307 97.816V101.592H131.155C131.304 101.592 131.379 101.661 131.379 101.8V102.792C131.379 102.931 131.304 103 131.155 103ZM69.4768 123.64C70.1274 123.64 70.6554 123.4 71.0608 122.92C71.4661 122.44 71.6634 121.811 71.6528 121.032C71.6421 120.264 71.4341 119.645 71.0288 119.176C70.6234 118.707 70.1061 118.477 69.4768 118.488C68.8794 118.488 68.3781 118.712 67.9728 119.16C67.5674 119.608 67.3648 120.237 67.3648 121.048C67.3648 121.848 67.5621 122.483 67.9568 122.952C68.3514 123.421 68.8581 123.651 69.4768 123.64ZM67.0448 125H65.8608C65.7221 125 65.6528 124.931 65.6528 124.792V114.92H64.8368C64.6981 114.92 64.6288 114.851 64.6288 114.712V113.72C64.6288 113.581 64.6981 113.512 64.8368 113.512H67.1568C67.2954 113.512 67.3648 113.581 67.3648 113.72V117.688L67.3008 118.376H67.3648C67.4821 118.045 67.7541 117.736 68.1808 117.448C68.6074 117.16 69.1461 117.016 69.7968 117.016C70.8848 117.005 71.7541 117.373 72.4048 118.12C73.0554 118.867 73.3808 119.832 73.3808 121.016C73.3808 122.275 73.0501 123.272 72.3888 124.008C71.7274 124.744 70.8581 125.112 69.7808 125.112C69.1194 125.112 68.5754 124.968 68.1488 124.68C67.7221 124.392 67.4288 124.077 67.2688 123.736H67.2528V124.792C67.2528 124.931 67.1834 125 67.0448 125ZM75.2476 114.632C75.237 114.312 75.349 114.035 75.5836 113.8C75.8183 113.565 76.0956 113.453 76.4156 113.464C76.7356 113.453 77.013 113.565 77.2476 113.8C77.4823 114.035 77.5943 114.312 77.5836 114.632C77.5943 114.952 77.4823 115.229 77.2476 115.464C77.013 115.699 76.7356 115.811 76.4156 115.8C76.0956 115.811 75.8183 115.699 75.5836 115.464C75.349 115.229 75.237 114.952 75.2476 114.632ZM78.1916 125H74.8316C74.693 125 74.6236 124.931 74.6236 124.792V123.8C74.6236 123.661 74.693 123.592 74.8316 123.592H75.6796V118.536H74.8316C74.693 118.536 74.6236 118.467 74.6236 118.328V117.336C74.6236 117.197 74.693 117.128 74.8316 117.128H77.1996C77.349 117.128 77.4236 117.197 77.4236 117.336V123.592H78.1916C78.3303 123.592 78.3996 123.661 78.3996 123.8V124.792C78.3996 124.931 78.3303 125 78.1916 125ZM82.907 125H79.579C79.4297 125 79.355 124.931 79.355 124.792V123.8C79.355 123.661 79.4297 123.592 79.579 123.592H80.411V114.92H79.579C79.4297 114.92 79.355 114.851 79.355 114.712V113.72C79.355 113.581 79.4297 113.512 79.579 113.512H81.771C82.027 113.512 82.155 113.629 82.155 113.864V123.592H82.907C83.0563 123.592 83.131 123.661 83.131 123.8V124.792C83.131 124.931 83.0563 125 82.907 125ZM88.2315 123.64C88.8502 123.651 89.3568 123.421 89.7515 122.952C90.1462 122.483 90.3435 121.848 90.3435 121.048C90.3435 120.248 90.1408 119.624 89.7355 119.176C89.3302 118.728 88.8288 118.499 88.2315 118.488C87.5915 118.488 87.0688 118.717 86.6635 119.176C86.2582 119.635 86.0555 120.253 86.0555 121.032C86.0555 121.811 86.2582 122.44 86.6635 122.92C87.0688 123.4 87.5915 123.64 88.2315 123.64ZM92.8555 125H91.2075C90.7275 125 90.4875 124.765 90.4875 124.296V123.64H90.4555C90.3275 123.981 90.0395 124.312 89.5915 124.632C89.1435 124.952 88.5888 125.112 87.9275 125.112C86.8502 125.112 85.9808 124.744 85.3195 124.008C84.6582 123.272 84.3275 122.275 84.3275 121.016C84.3275 119.832 84.6582 118.867 85.3195 118.12C85.9808 117.373 86.8608 117.005 87.9595 117.016C88.5995 117.005 89.1222 117.139 89.5275 117.416C89.9328 117.693 90.2048 117.992 90.3435 118.312H90.3595C90.3488 118.12 90.3435 117.933 90.3435 117.752V114.92H89.5115C89.3622 114.92 89.2875 114.851 89.2875 114.712V113.72C89.2875 113.581 89.3622 113.512 89.5115 113.512H91.8475C91.9862 113.512 92.0555 113.581 92.0555 113.72V123.592H92.8555C92.9942 123.592 93.0635 123.661 93.0635 123.8V124.792C93.0635 124.931 92.9942 125 92.8555 125Z" fill="#003E80"/>
</svg>
