<svg width="375" height="376" viewBox="0 0 375 376" fill="none" xmlns="http://www.w3.org/2000/svg">
<path d="M403.55 375.999L669.666 375.999C695.704 375.999 828 375.999 828 375.999L828 340.689L787.168 340.689C764.68 340.689 746.927 322.381 746.927 300.528C746.927 278.085 728.582 260.367 706.687 260.367C703.95 260.367 616.845 260.096 614.272 259.58C594.628 259.58 582.008 246.74 582.008 220.206L582.008 217.962L582.008 177.801C582.008 155.358 563.663 137.64 541.767 137.64C519.28 137.64 501.527 119.331 501.527 97.4785C501.527 75.0354 483.182 57.317 461.286 57.317C438.799 57.317 421.045 75.626 421.045 97.4784L421.045 119.944L421.045 120.535C420.454 142.387 402.7 160.106 380.805 160.106C354.327 160.106 350.164 160.106 350.164 160.106C350.164 160.106 331.679 160.106 309.784 160.106C287.296 160.106 269.363 143.569 269.363 121.716C269.363 99.2731 251.018 81.5548 229.123 81.5548C206.635 81.5548 188.882 63.246 188.882 41.3936L188.882 40.1612C188.882 17.7182 170.537 7.28297e-05 148.642 6.90013e-05C126.154 6.50695e-05 108.401 18.3087 108.401 40.1612L108.401 56.7266C108.401 79.1697 90.0558 96.8878 68.1602 96.8878C48.0399 96.8877 30.8785 81.532 27.9197 62.0419C27.9197 60.8607 27.9196 59.6795 27.3279 58.4983C27.3279 57.9077 27.3279 56.7265 27.3279 56.1359C27.3279 33.6929 8.98277 15.9747 -12.9128 15.9747L-164.927 15.9746C-209.31 15.9746 -246 52.0015 -246 96.8877C-246 240.392 -245.048 376 -245.048 376L-222.156 376L-205.941 375.999L-174.465 375.999C-150.62 376 -128.827 375.999 -83.8524 375.999C300.772 375.999 294.421 375.999 403.55 375.999Z" fill="#DAE47C"/>
</svg>
