<svg width="120" height="72" viewBox="0 0 120 72" fill="none" xmlns="http://www.w3.org/2000/svg">
<path d="M35.0736 14.7998C35.0352 14.6078 35.0352 14.3774 35.0352 14.147C35.0352 8.88591 39.297 4.58487 44.5955 4.58487C46.1313 4.58487 47.5519 5.0457 48.8958 5.62173C50.2012 6.15936 50.8155 5.62173 51.1611 5.23771C53.8487 2.16554 57.8418 0.207031 62.2572 0.207031C70.3969 0.207031 77.0393 6.81219 77.0393 14.9918C77.0393 15.6447 77.0009 16.2975 76.9241 16.9119C76.7321 18.5248 77.6536 18.7552 78.1143 18.9857C82.8369 21.0594 86.1005 25.7828 86.1005 31.2359C86.1005 38.6475 80.1108 44.6383 72.7006 44.6383C65.2904 44.6383 48.7038 44.6383 40.6025 44.6383C32.5011 44.6383 25.974 38.0715 25.974 30.0071C25.974 24.4004 29.1224 19.5233 33.7682 17.0656C34.2673 16.7967 35.304 16.4511 35.0736 14.7998Z" fill="#D2F1FE"/>
<path fill-rule="evenodd" clip-rule="evenodd" d="M39.2913 62.8741C36.8436 62.8741 34.848 64.8773 34.848 67.3344C34.848 69.7914 36.8436 71.7946 39.2913 71.7946C41.739 71.7946 43.7346 69.7914 43.7346 67.3344C43.7346 64.8773 41.739 62.8741 39.2913 62.8741Z" fill="#863D13"/>
<path fill-rule="evenodd" clip-rule="evenodd" d="M41.5029 67.3339C41.5029 68.5702 40.5051 69.5718 39.2734 69.5718C38.0418 69.5718 37.044 68.5702 37.044 67.3339C37.044 66.0975 38.0418 65.0959 39.2734 65.0959C40.5051 65.1116 41.5029 66.1132 41.5029 67.3339Z" fill="white"/>
<path fill-rule="evenodd" clip-rule="evenodd" d="M7.57753 62.8741C5.12982 62.8741 3.13424 64.8773 3.13424 67.3344C3.13424 69.7914 5.12982 71.7946 7.57753 71.7946C10.0252 71.7946 12.0208 69.7914 12.0208 67.3344C12.0208 64.8773 10.0252 62.8741 7.57753 62.8741Z" fill="#863D13"/>
<path fill-rule="evenodd" clip-rule="evenodd" d="M9.79089 67.3339C9.79089 68.5702 8.7931 69.5718 7.56145 69.5718C6.32981 69.5718 5.33202 68.5702 5.33202 67.3339C5.33202 66.0975 6.32981 65.0959 7.56145 65.0959C8.7931 65.1116 9.79089 66.1132 9.79089 67.3339Z" fill="white"/>
<path d="M45.8545 58.4138C44.3423 56.5984 43.4692 55.6437 41.3489 53.4371C37.7163 49.6341 36.7965 48.2882 31.2774 48.2882H23.5134C19.8184 48.2882 18.0567 49.6654 16.2014 51.5121C15.001 52.7172 14.2526 53.4684 13.2704 54.4543C12.2726 55.4403 11.6958 55.7063 9.41959 55.8941C5.05426 56.2541 2.84041 57.2713 1.51522 59.3371C2.10766 59.7597 2.51301 60.4483 2.51301 61.2464C2.51301 62.4827 1.56199 63.4843 0.361523 63.5626C0.361523 64.392 0.455063 65.2371 0.688919 65.957C0.891598 66.5674 1.25018 66.896 1.25018 66.896C1.71789 67.3342 2.20119 67.0682 2.23238 66.5987L2.31033 66.2387C2.80923 63.766 4.99189 61.9037 7.5955 61.9037C10.5733 61.9037 13.0054 64.3294 13.0054 67.3186C13.0054 67.9759 13.3016 68.2106 14.0188 68.2106H32.8833C33.4757 68.2106 33.8187 68.0698 33.8655 67.2873C33.8655 67.2873 33.9278 66.5987 33.9902 66.27C34.4735 63.7817 36.6717 61.8881 39.2909 61.8881C41.879 61.8881 44.0305 63.7034 44.5605 66.1292C44.6385 66.5048 44.6697 66.9273 44.6697 66.9273C44.7164 67.522 45.153 67.6942 45.6986 67.5064C45.6986 67.5064 46.6029 67.256 47.3356 66.5361C48.1463 65.7536 48.4114 64.6581 48.4114 63.5626C48.4114 61.1838 47.2889 60.1196 45.8545 58.4138Z" fill="#FFB900"/>
<path d="M2.49518 61.2462C2.49518 60.4637 2.10542 59.7595 1.49739 59.3369C1.23235 59.7438 0.998493 60.1977 0.795817 60.6828C0.515189 61.3558 0.328103 62.4356 0.328103 63.5624C1.54416 63.4842 2.49518 62.4826 2.49518 61.2462Z" fill="#FFE48A"/>
<path d="M27.1607 51.7776C27.1607 51.1829 26.6774 50.6821 26.0694 50.6821H22.0938C20.7842 50.6821 19.7396 51.2142 18.9757 51.9811C18.9757 51.9811 16.9645 54.1721 16.2474 55.0015C15.5302 55.8153 15.7485 56.9108 16.9178 56.9108H26.0694C26.6774 56.9108 27.1607 56.4257 27.1607 55.8153V51.7776Z" fill="white"/>
<path d="M29.3579 51.9813C29.3579 51.3866 29.8412 50.8075 30.4337 50.7136C30.4337 50.7136 32.5696 50.3693 34.9081 51.4805C37.7456 52.8107 38.2757 55.8312 38.2757 55.8312C38.4004 56.4259 38.0262 56.8954 37.4182 56.8954L30.4337 56.911C29.8412 56.911 29.3423 56.4259 29.3423 55.8155V51.9813H29.3579Z" fill="white"/>
<path d="M69.919 29.1509C69.7925 29.2146 69.666 29.3101 69.571 29.4057L61.7887 40.4566L54.0063 51.4756C53.8798 51.6986 53.7532 52.0489 53.7532 52.3037V71.3482C53.7532 71.603 53.943 71.794 54.1961 71.794H85.4838H85.9267V51.8578L69.919 29.1509Z" fill="#E5007E"/>
<path d="M62.6126 64.9476C62.6126 65.0431 62.5177 65.1387 62.4228 65.1387H59.8603C59.7654 65.1387 59.6705 65.0431 59.6705 64.9476V62.368C59.6705 62.2724 59.7654 62.1769 59.8603 62.1769H62.4228C62.5177 62.1769 62.6126 62.2724 62.6126 62.368V64.9476Z" fill="white"/>
<path d="M62.6126 60.6481C62.6126 60.7437 62.5177 60.8392 62.4228 60.8392H59.8603C59.7654 60.8392 59.6705 60.7437 59.6705 60.6481V58.0685C59.6705 57.973 59.7654 57.8774 59.8603 57.8774H62.4228C62.5177 57.8774 62.6126 57.973 62.6126 58.0685V60.6481Z" fill="white"/>
<path d="M66.8824 64.9476C66.8824 65.0431 66.7875 65.1387 66.6926 65.1387H64.1301C64.0352 65.1387 63.9403 65.0431 63.9403 64.9476V62.368C63.9403 62.2724 64.0352 62.1769 64.1301 62.1769H66.6926C66.7875 62.1769 66.8824 62.2724 66.8824 62.368V64.9476Z" fill="white"/>
<path d="M66.8824 60.6481C66.8824 60.7437 66.7875 60.8392 66.6926 60.8392H64.1301C64.0352 60.8392 63.9403 60.7437 63.9403 60.6481V58.0685C63.9403 57.973 64.0352 57.8774 64.1301 57.8774H66.6926C66.7875 57.8774 66.8824 57.973 66.8824 58.0685V60.6481Z" fill="white"/>
<path d="M69.1913 51.9852C69.1913 52.0807 69.0963 52.1763 69.0014 52.1763H66.439C66.3441 52.1763 66.2491 52.0807 66.2491 51.9852V49.4056C66.2491 49.31 66.3441 49.2145 66.439 49.2145H69.0014C69.0963 49.2145 69.1913 49.31 69.1913 49.4056V51.9852Z" fill="white"/>
<path d="M69.1913 47.6857C69.1913 47.7813 69.0963 47.8768 69.0014 47.8768H66.439C66.3441 47.8768 66.2491 47.7813 66.2491 47.6857V45.1061C66.2491 45.0106 66.3441 44.915 66.439 44.915H69.0014C69.0963 44.915 69.1913 45.0106 69.1913 45.1061V47.6857Z" fill="white"/>
<path d="M70.5226 45.1061C70.5226 45.0106 70.6175 44.915 70.7124 44.915H73.2749C73.3698 44.915 73.4647 45.0106 73.4647 45.1061V47.6857C73.4647 47.7813 73.3698 47.8768 73.2749 47.8768H70.7124C70.6175 47.8768 70.5226 47.7813 70.5226 47.6857V45.1061Z" fill="white"/>
<path d="M70.5226 51.9852V49.4056C70.5226 49.31 70.6175 49.2145 70.7124 49.2145H73.2749C73.3698 49.2145 73.4647 49.31 73.4647 49.4056V51.9852C73.4647 52.0807 73.3698 52.1763 73.2749 52.1763H70.7124C70.6175 52.1763 70.5226 52.0807 70.5226 51.9852Z" fill="white"/>
<path d="M75.7394 64.9476C75.7394 65.0431 75.6445 65.1387 75.5496 65.1387H72.9871C72.8922 65.1387 72.7973 65.0431 72.7973 64.9476V62.368C72.7973 62.2724 72.8922 62.1769 72.9871 62.1769H75.5496C75.6445 62.1769 75.7394 62.2724 75.7394 62.368V64.9476Z" fill="white"/>
<path d="M75.7394 60.6481C75.7394 60.7437 75.6445 60.8392 75.5496 60.8392H72.9871C72.8922 60.8392 72.7973 60.7437 72.7973 60.6481V58.0685C72.7973 57.973 72.8922 57.8774 72.9871 57.8774H75.5496C75.6445 57.8774 75.7394 57.973 75.7394 58.0685V60.6481Z" fill="white"/>
<path d="M80.0129 64.9476C80.0129 65.0431 79.9179 65.1387 79.823 65.1387H77.2606C77.1656 65.1387 77.0707 65.0431 77.0707 64.9476V62.368C77.0707 62.2724 77.1656 62.1769 77.2606 62.1769H79.823C79.9179 62.1769 80.0129 62.2724 80.0129 62.368V64.9476Z" fill="white"/>
<path d="M80.0129 60.6481C80.0129 60.7437 79.9179 60.8392 79.823 60.8392H77.2606C77.1656 60.8392 77.0707 60.7437 77.0707 60.6481V58.0685C77.0707 57.973 77.1656 57.8774 77.2606 57.8774H79.823C79.9179 57.8774 80.0129 57.973 80.0129 58.0685V60.6481Z" fill="white"/>
<path d="M94.4677 51.8584C94.7208 51.8584 95.0371 51.6991 95.1637 51.4762L102.693 40.8075C102.851 40.6164 103.073 40.6164 103.199 40.8075L110.728 51.4762C110.887 51.6673 111.203 51.8584 111.424 51.8584H114.809H119.871C119.839 51.731 119.776 51.5718 119.713 51.4762L111.931 40.4571L104.148 29.4381C104.022 29.247 103.674 29.0559 103.452 29.0559H70.2981C70.1715 29.0559 70.045 29.0878 69.9185 29.1514L85.9577 51.8584H91.5256H94.4677Z" fill="#8B0259"/>
<path d="M119.904 51.8583H114.842H111.457C111.204 51.8583 110.888 51.6991 110.761 51.4761L103.232 40.8074C103.074 40.6163 102.852 40.6163 102.726 40.8074L95.1964 51.4761C95.0383 51.6672 94.7219 51.8583 94.5005 51.8583H91.5583H85.9905V71.7945H86.4334H119.556C119.809 71.7945 119.999 71.6034 119.999 71.3487V52.3041C119.999 52.1768 119.967 52.0175 119.904 51.8583Z" fill="#F3A9CB"/>
<path d="M95.7335 64.9476C95.7335 65.0431 95.6386 65.1387 95.5437 65.1387H92.9812C92.8863 65.1387 92.7914 65.0431 92.7914 64.9476V62.368C92.7914 62.2724 92.8863 62.1769 92.9812 62.1769H95.5437C95.6386 62.1769 95.7335 62.2724 95.7335 62.368V64.9476Z" fill="white"/>
<path d="M95.7335 60.6481C95.7335 60.7437 95.6386 60.8392 95.5437 60.8392H92.9812C92.8863 60.8392 92.7914 60.7437 92.7914 60.6481V58.0685C92.7914 57.973 92.8863 57.8774 92.9812 57.8774H95.5437C95.6386 57.8774 95.7335 57.973 95.7335 58.0685V60.6481Z" fill="white"/>
<path d="M100.002 64.9476C100.002 65.0431 99.9066 65.1387 99.8117 65.1387H97.2493C97.1544 65.1387 97.0594 65.0431 97.0594 64.9476V62.368C97.0594 62.2724 97.1544 62.1769 97.2493 62.1769H99.8117C99.9066 62.1769 100.002 62.2724 100.002 62.368V64.9476Z" fill="white"/>
<path d="M100.002 60.6481C100.002 60.7437 99.9066 60.8392 99.8117 60.8392H97.2493C97.1544 60.8392 97.0594 60.7437 97.0594 60.6481V58.0685C97.0594 57.973 97.1544 57.8774 97.2493 57.8774H99.8117C99.9066 57.8774 100.002 57.973 100.002 58.0685V60.6481Z" fill="white"/>
<path d="M108.862 64.9476C108.862 65.0431 108.767 65.1387 108.672 65.1387H106.11C106.015 65.1387 105.92 65.0431 105.92 64.9476V62.368C105.92 62.2724 106.015 62.1769 106.11 62.1769H108.672C108.767 62.1769 108.862 62.2724 108.862 62.368V64.9476Z" fill="white"/>
<path d="M108.862 60.6481C108.862 60.7437 108.767 60.8392 108.672 60.8392H106.11C106.015 60.8392 105.92 60.7437 105.92 60.6481V58.0685C105.92 57.973 106.015 57.8774 106.11 57.8774H108.672C108.767 57.8774 108.862 57.973 108.862 58.0685V60.6481Z" fill="white"/>
<path d="M113.134 64.9476C113.134 65.0431 113.039 65.1387 112.944 65.1387H110.382C110.287 65.1387 110.192 65.0431 110.192 64.9476V62.368C110.192 62.2724 110.287 62.1769 110.382 62.1769H112.944C113.039 62.1769 113.134 62.2724 113.134 62.368V64.9476Z" fill="white"/>
<path d="M113.134 60.6481C113.134 60.7437 113.039 60.8392 112.944 60.8392H110.382C110.287 60.8392 110.192 60.7437 110.192 60.6481V58.0685C110.192 57.973 110.287 57.8774 110.382 57.8774H112.944C113.039 57.8774 113.134 57.973 113.134 58.0685V60.6481Z" fill="white"/>
</svg>
