<svg width="50" height="43" viewBox="0 0 50 43" fill="none" xmlns="http://www.w3.org/2000/svg">
<path d="M38.8464 4.82702L33.2214 0.367504C32.9658 0.165495 32.4911 0 32.1666 0H21.9766H19.6556H7.14454C7.00201 0 6.83004 0.032981 6.66101 0.0859864L12.9204 5.04846C12.9215 5.04905 12.9257 5.052 12.9262 5.05259C13.0858 5.17568 13.1883 5.11089 13.2802 5.05435C13.3662 5.00135 18.9412 0.567746 19.5937 0.0488828C19.6338 0.0164907 19.6615 0.0106011 19.7127 0.0500606C19.7251 0.0594838 20.0902 0.348069 20.6391 0.782712L20.642 0.781535L26.207 5.19335H39.1391C39.0579 5.04729 38.9577 4.91536 38.8464 4.82702Z" fill="#80004F"/>
<path d="M19.7121 0.0511217C19.6609 0.0116622 19.6332 0.0175518 19.5931 0.0499439C18.9412 0.568807 13.3656 5.00241 13.2796 5.05541C13.1883 5.11136 13.0858 5.17674 12.9256 5.05365C12.7655 4.93115 6.66041 0.0870481 6.66041 0.0870481C6.44427 0.154188 6.23166 0.254898 6.08855 0.368565L0.463502 4.82749C0.208488 5.03009 0 5.4612 0 5.7863V41.4783C0 41.804 0.16255 42.0101 0.488238 42.0101H25.6139C25.7765 42.0101 25.9915 42.0101 26.2058 42.0101V5.19441C26.2064 5.19441 19.7639 0.0899923 19.7121 0.0511217Z" fill="#E6007E"/>
<path d="M7.57438 38.3564C7.57438 38.4542 7.49428 38.5349 7.39652 38.5349H3.68496C3.58779 38.5349 3.50769 38.4542 3.50769 38.3564V34.0382C3.50769 33.9405 3.58779 33.861 3.68496 33.861H7.39652C7.49428 33.861 7.57438 33.9405 7.57438 34.0382V38.3564Z" fill="white"/>
<path d="M7.57438 29.9792C7.57438 30.0764 7.49428 30.157 7.39652 30.157H3.68496C3.58779 30.157 3.50769 30.0764 3.50769 29.9792V25.661C3.50769 25.5638 3.58779 25.4832 3.68496 25.4832H7.39652C7.49428 25.4832 7.57438 25.5638 7.57438 25.661V29.9792Z" fill="white"/>
<path d="M7.57438 21.602C7.57438 21.6998 7.49428 21.7798 7.39652 21.7798H3.68496C3.58779 21.7798 3.50769 21.6998 3.50769 21.602V17.2832C3.50769 17.1855 3.58779 17.106 3.68496 17.106H7.39652C7.49428 17.106 7.57438 17.1861 7.57438 17.2832V21.602Z" fill="white"/>
<path d="M7.57438 13.2237C7.57438 13.3215 7.49428 13.401 7.39652 13.401H3.68496C3.58779 13.401 3.50769 13.3215 3.50769 13.2237V8.90493C3.50769 8.80717 3.58779 8.72766 3.68496 8.72766H7.39652C7.49428 8.72766 7.57438 8.80776 7.57438 8.90493V13.2237Z" fill="white"/>
<path d="M15.1372 29.9792C15.1372 30.0764 15.0571 30.157 14.9593 30.157H11.2478C11.1494 30.157 11.0693 30.0764 11.0693 29.9792V25.661C11.0693 25.5638 11.1494 25.4832 11.2478 25.4832H14.9593C15.0571 25.4832 15.1372 25.5638 15.1372 25.661V29.9792Z" fill="white"/>
<path d="M15.1372 21.602C15.1372 21.6998 15.0571 21.7798 14.9593 21.7798H11.2478C11.1494 21.7798 11.0693 21.6998 11.0693 21.602V17.2832C11.0693 17.1855 11.1494 17.106 11.2478 17.106H14.9593C15.0571 17.106 15.1372 17.1861 15.1372 17.2832V21.602Z" fill="white"/>
<path d="M15.1372 13.2237C15.1372 13.3215 15.0571 13.401 14.9593 13.401H11.2478C11.1494 13.401 11.0693 13.3215 11.0693 13.2237V8.90493C11.0693 8.80717 11.1494 8.72766 11.2478 8.72766H14.9593C15.0571 8.72766 15.1372 8.80776 15.1372 8.90493V13.2237Z" fill="white"/>
<path d="M22.681 38.3564C22.681 38.4542 22.6009 38.5349 22.5032 38.5349H18.791C18.6933 38.5349 18.6138 38.4542 18.6138 38.3564V34.0382C18.6138 33.9405 18.6933 33.861 18.791 33.861H22.5032C22.6009 33.861 22.681 33.9405 22.681 34.0382V38.3564Z" fill="white"/>
<path d="M22.681 29.9792C22.681 30.0764 22.6009 30.157 22.5032 30.157H18.791C18.6933 30.157 18.6138 30.0764 18.6138 29.9792V25.661C18.6138 25.5638 18.6933 25.4832 18.791 25.4832H22.5032C22.6009 25.4832 22.681 25.5638 22.681 25.661V29.9792Z" fill="white"/>
<path d="M22.681 21.602C22.681 21.6998 22.6009 21.7798 22.5032 21.7798H18.791C18.6933 21.7798 18.6138 21.6998 18.6138 21.602V17.2832C18.6138 17.1855 18.6933 17.106 18.791 17.106H22.5032C22.6009 17.106 22.681 17.1861 22.681 17.2832V21.602Z" fill="white"/>
<path d="M22.681 13.2236C22.681 13.3213 22.6009 13.4008 22.5032 13.4008H18.791C18.6933 13.4008 18.6138 13.3213 18.6138 13.2236V8.90481C18.6138 8.80705 18.6933 8.72754 18.791 8.72754H22.5032C22.6009 8.72754 22.681 8.80764 22.681 8.90481V13.2236Z" fill="white"/>
<path d="M15.3626 42.0074L10.8442 42.0103V34.0271C10.8442 33.9293 10.9243 33.8492 11.0221 33.8492H15.1848C15.2826 33.8492 15.3626 33.9293 15.3626 34.0271V42.0074Z" fill="#80004F"/>
<path d="M39.1387 5.19458H26.2065V42.0103C26.4209 42.0103 38.8218 42.0103 38.8218 42.0103C39.1475 42.0103 39.3095 41.8036 39.3095 41.4785V5.78647C39.3101 5.60272 39.2423 5.38599 39.1387 5.19458Z" fill="#F09EC8"/>
<path d="M30.7307 8.90506C30.7307 8.80729 30.8102 8.72778 30.908 8.72778H34.6201C34.7179 8.72778 34.7974 8.80788 34.7974 8.90506V13.2238C34.7974 13.3216 34.7179 13.4011 34.6201 13.4011H30.908C30.8102 13.4011 30.7307 13.3216 30.7307 13.2238V8.90506Z" fill="white"/>
<path d="M30.7308 17.2829C30.7308 17.1851 30.8103 17.1056 30.908 17.1056H34.6202C34.718 17.1056 34.7975 17.1857 34.7975 17.2829V21.6016C34.7975 21.6994 34.718 21.7795 34.6202 21.7795H30.908C30.8103 21.7795 30.7308 21.6994 30.7308 21.6016V17.2829Z" fill="white"/>
<path d="M30.7308 25.6613C30.7308 25.5641 30.8103 25.4834 30.908 25.4834H34.6202C34.718 25.4834 34.7975 25.5641 34.7975 25.6613V29.9794C34.7975 30.0766 34.718 30.1573 34.6202 30.1573H30.908C30.8103 30.1573 30.7308 30.0766 30.7308 29.9794V25.6613Z" fill="white"/>
<path d="M30.7308 34.0385C30.7308 33.9407 30.8103 33.8612 30.908 33.8612H34.6202C34.718 33.8612 34.7975 33.9407 34.7975 34.0385V38.3566C34.7975 38.4544 34.718 38.5339 34.6202 38.5339H30.908C30.8103 38.5339 30.7308 38.4544 30.7308 38.3566V34.0385Z" fill="white"/>
<path d="M47.2272 33.4204C47.2631 33.2407 47.2837 33.057 47.2837 32.8674C47.2837 31.286 46.001 30.0033 44.4197 30.0033C43.849 30.0039 43.3177 30.1711 42.8713 30.4609C42.7665 30.5298 42.6746 30.4692 42.6422 30.4273C41.8324 29.3714 40.5591 28.6899 39.1256 28.6899C36.6815 28.6899 34.6979 30.6723 34.6979 33.1182C34.6979 33.4227 34.7315 33.7196 34.7886 34.007C34.8174 34.1548 34.7244 34.1837 34.6761 34.2007C33.1048 34.7449 31.9775 36.2385 31.9775 37.9947C31.9775 40.2121 33.7756 42.0102 35.9918 42.0102C38.2098 42.0102 43.1882 42.0102 45.6117 42.0102C48.0352 42.0102 49.9999 40.046 49.9999 37.6225C49.9999 35.7891 48.8739 34.2184 47.2761 33.5617C47.2525 33.5523 47.2042 33.5376 47.2272 33.4204Z" fill="#B0CB0B"/>
</svg>
