<svg width="82" height="40" viewBox="0 0 82 40" fill="none" xmlns="http://www.w3.org/2000/svg">
<path fill-rule="evenodd" clip-rule="evenodd" d="M66.3024 24.8204C62.1372 24.8204 58.7414 28.2292 58.7414 32.4103C58.7414 36.5914 62.1372 40.0001 66.3024 40.0001C70.4675 40.0001 73.8633 36.5914 73.8633 32.4103C73.8633 28.2292 70.4675 24.8204 66.3024 24.8204Z" fill="#863D13"/>
<path fill-rule="evenodd" clip-rule="evenodd" d="M70.0657 32.4094C70.0657 34.5133 68.3678 36.2177 66.2719 36.2177C64.1761 36.2177 62.4782 34.5133 62.4782 32.4094C62.4782 30.3056 64.1761 28.6012 66.2719 28.6012C68.3678 28.6278 70.0657 30.3322 70.0657 32.4094Z" fill="white"/>
<path fill-rule="evenodd" clip-rule="evenodd" d="M12.3361 24.8204C8.17094 24.8204 4.77513 28.2292 4.77513 32.4103C4.77513 36.5914 8.17094 40.0001 12.3361 40.0001C16.5013 40.0001 19.8971 36.5914 19.8971 32.4103C19.8971 28.2292 16.5013 24.8204 12.3361 24.8204Z" fill="#863D13"/>
<path fill-rule="evenodd" clip-rule="evenodd" d="M16.1025 32.4094C16.1025 34.5133 14.4046 36.2177 12.3087 36.2177C10.2129 36.2177 8.51497 34.5133 8.51497 32.4094C8.51497 30.3056 10.2129 28.6012 12.3087 28.6012C14.4046 28.6278 16.1025 30.3322 16.1025 32.4094Z" fill="white"/>
<path d="M77.4707 17.2303C74.8974 14.1411 73.4117 12.5166 69.8036 8.76161C63.6222 2.29027 62.0569 0 52.6654 0H39.4536C33.166 0 30.1682 2.34353 27.0111 5.48599C24.9683 7.53658 23.6949 8.81487 22.0235 10.4926C20.3256 12.1704 19.344 12.6231 15.4707 12.9427C8.04234 13.5552 4.27512 15.2862 2.02009 18.8015C3.02822 19.5206 3.71799 20.6923 3.71799 22.0505C3.71799 24.1544 2.09967 25.8587 0.0568848 25.9919C0.0568848 27.4033 0.216057 28.8414 0.613998 30.0664C0.958893 31.1051 1.56908 31.6643 1.56908 31.6643C2.36497 32.41 3.18739 31.9572 3.24045 31.1583L3.3731 30.5458C4.22205 26.3381 7.93623 23.169 12.3667 23.169C17.4339 23.169 21.5725 27.2968 21.5725 32.3833C21.5725 33.5018 22.0766 33.9013 23.297 33.9013H55.398C56.4061 33.9013 56.9898 33.6616 57.0694 32.3301C57.0694 32.3301 57.1755 31.1583 57.2816 30.5991C58.104 26.3647 61.8447 23.1424 66.3017 23.1424C70.7057 23.1424 74.3668 26.2316 75.2688 30.3594C75.4014 30.9985 75.4545 31.7176 75.4545 31.7176C75.5341 32.7295 76.2769 33.0225 77.2054 32.7029C77.2054 32.7029 78.7442 32.2768 79.9911 31.0518C81.3706 29.7202 81.8216 27.8561 81.8216 25.9919C81.8216 21.944 79.9115 20.1331 77.4707 17.2303Z" fill="#FFB900"/>
<path d="M3.68765 22.0501C3.68765 20.7186 3.02441 19.5202 1.98975 18.8011C1.53874 19.4936 1.1408 20.2659 0.79591 21.0914C0.318374 22.2366 1.69277e-05 24.0741 1.69277e-05 25.9915C2.06934 25.8584 3.68765 24.154 3.68765 22.0501Z" fill="#FFE48A"/>
<path d="M45.6601 5.93778C45.6601 4.9258 44.8376 4.07361 43.803 4.07361H37.0379C34.8094 4.07361 33.0319 4.97906 31.7319 6.28398C31.7319 6.28398 28.3096 10.0123 27.0892 11.4238C25.8689 12.8086 26.2403 14.6728 28.23 14.6728H43.803C44.8376 14.6728 45.6601 13.8472 45.6601 12.8086V5.93778Z" fill="white"/>
<path d="M49.399 6.28439C49.399 5.27241 50.2214 4.28706 51.2295 4.12727C51.2295 4.12727 54.8641 3.54139 58.8436 5.43219C63.672 7.69583 64.574 12.8356 64.574 12.8356C64.7863 13.8476 64.1495 14.6465 63.1149 14.6465L51.2295 14.6732C50.2214 14.6732 49.3725 13.8476 49.3725 12.809V6.28439H49.399Z" fill="white"/>
</svg>
