<svg width="65" height="55" viewBox="0 0 65 55" fill="none" xmlns="http://www.w3.org/2000/svg">
<path d="M64.9947 25.3591C64.9947 25.3591 64.9947 25.3591 64.9865 25.2939C64.89 24.5367 64.2569 23.9347 63.4585 23.8426C63.3882 23.8348 63.3882 23.8348 63.3882 23.8348C63.3097 23.8334 62.989 23.8312 62.6766 23.8312H60.6634C58.7176 23.8312 57.979 22.0063 57.6068 21.2994C57.2449 20.6131 55.8657 18.3983 55.6078 18.0019C54.5635 16.3918 53.6971 15.2808 54.2331 13.4729C54.811 11.5246 56.4339 10.1229 58.364 9.65784C58.6997 9.57772 58.8305 9.56354 58.8305 9.56354C59.1422 9.52951 59.2865 9.28349 59.1542 9.0155C59.1542 9.0155 59.0607 8.82974 58.8589 8.5107C57.7652 6.78573 56.0048 5.43865 53.7995 4.85019C49.7307 3.76402 45.522 5.63504 43.7197 9.10625C43.5575 9.4182 43.4939 9.57702 43.4939 9.57702C43.3833 9.85423 43.0484 10.0088 42.7509 9.92017C42.7509 9.92017 42.6126 9.87975 42.268 9.78829C40.1367 9.22465 37.8837 8.89355 35.5491 8.82974C35.2762 8.82265 35.0019 8.8184 34.726 8.8184C26.32 8.8184 18.8834 12.2896 14.3511 17.612C14.0595 17.9537 13.1326 19.2462 12.7955 19.4766C12.4321 19.7262 12.1376 19.7815 11.8177 19.7801C11.5777 19.7794 11.337 19.7475 11.0985 19.7014C10.9602 19.6751 10.97 19.4702 11.1053 19.3908C12.5151 18.5599 13.3897 17.0129 13.2597 15.4262C13.0713 13.134 11.0612 11.4757 8.68248 11.6501C7.47446 11.7401 6.39725 12.269 5.6527 13.1418C5.06589 13.8288 4.72725 14.6931 4.66147 15.6396C4.65025 15.7927 4.53588 16.0224 4.32657 15.7232C4.08362 15.3758 3.81226 14.9774 3.59174 14.5038C3.15368 13.5601 2.45697 13.0773 1.68626 13.3056C0.70922 13.592 0.824341 14.9185 1.09719 15.6389C2.07871 18.2309 3.87655 19.271 5.8665 19.8928C6.06908 19.9559 6.21859 20.0743 6.27017 20.1331C6.49294 20.3898 6.73514 20.6294 6.99529 20.8485C7.74058 21.476 8.90077 22.163 10.5723 22.4395C10.7898 22.4756 11.2279 22.5295 10.9819 23.1733C10.1888 25.2435 9.7268 27.4428 9.7268 29.7343C9.7268 36.3952 13.3419 41.4255 17.3383 44.8378C17.4668 44.947 17.8997 45.3072 17.8997 45.3072C18.097 45.461 18.1605 45.7893 17.9968 46.1835C17.94 46.3189 16.6595 49.2201 16.6595 49.2201C16.1429 50.4041 16.741 51.7725 17.9886 52.2638L23.0248 54.2412C24.2724 54.7311 25.7167 54.1653 26.2332 52.9813C26.2332 52.9813 27.1378 50.9429 27.4196 50.2907C27.5362 50.0206 27.7149 49.9433 27.9668 49.9957C27.9668 49.9957 27.9668 49.9957 28.1596 50.0362C29.7235 50.3545 32.3309 50.6133 34.1893 50.6452C34.3672 50.648 34.726 50.6494 34.726 50.6494C36.2323 50.6494 38.4735 50.519 39.7622 50.3268C39.9835 50.2935 39.9835 50.2935 39.9835 50.2935C40.3034 50.2325 40.4843 50.3602 40.5598 50.5332C40.6353 50.7047 41.6625 53.0295 41.6625 53.0295C42.1783 54.2121 43.6225 54.78 44.8702 54.2894L49.9071 52.3106C51.154 51.8207 51.7528 50.4509 51.2355 49.2669C51.2355 49.2669 50.3354 47.2505 50.1246 46.745C50.0162 46.4834 50.165 46.2757 50.298 46.1842C50.298 46.1842 50.298 46.1842 50.2995 46.1814C50.3078 46.1757 50.3377 46.1551 50.4565 46.0694C51.5532 45.2803 53.1537 43.9644 54.3071 42.7555C54.574 42.4769 54.8169 42.2032 55.0233 41.943C56.9945 39.4673 57.9312 36.8234 60.6724 36.8234H62.6773C62.9898 36.8234 63.3456 36.8192 63.4675 36.8135C63.4675 36.8135 63.4675 36.8135 63.5736 36.7944C64.2718 36.6696 64.8228 36.1534 64.964 35.4955C64.988 35.3877 64.988 35.3877 64.988 35.3877C64.9939 35.263 64.9999 35.0956 64.9999 35.0155C64.9999 34.9354 64.9999 34.6263 64.9999 34.3299V26.0333C64.9992 25.7363 64.9969 25.4335 64.9947 25.3591ZM9.27753 17.1667C8.42907 17.5914 7.74507 17.1334 7.58584 16.5201C7.36756 15.6736 7.77273 14.6824 8.69818 14.4414C9.55785 14.2188 10.3846 14.793 10.3443 15.6431C10.3114 16.3549 9.80454 16.9037 9.27753 17.1667Z" fill="#E6007E"/>
<path d="M52.2827 24.6581C53.2554 24.6581 54.0439 23.9103 54.0439 22.9878C54.0439 22.0652 53.2554 21.3174 52.2827 21.3174C51.31 21.3174 50.5215 22.0652 50.5215 22.9878C50.5215 23.9103 51.31 24.6581 52.2827 24.6581Z" fill="#F09EC8"/>
<path d="M24.1313 13.6256C24.0222 13.3143 24.1911 12.9499 24.5096 12.818C24.5096 12.818 24.8161 12.6904 25.2698 12.5245C28.2637 11.4263 31.5193 10.8506 34.789 10.8506C35.0514 10.8506 35.3108 10.8548 35.5709 10.8619C36.4306 10.8853 37.2925 10.9477 38.1432 11.0491C38.4998 11.0909 38.5828 11.103 38.5828 11.103C38.9259 11.154 39.1838 11.4256 39.1561 11.7078C39.1277 11.9892 39.0806 12.4635 39.0515 12.762C39.0216 13.0605 38.7173 13.2682 38.3727 13.2229C38.3727 13.2229 36.6788 13.0052 35.5066 12.9733C35.2682 12.9669 35.029 12.9634 34.789 12.9634C31.7981 12.9634 28.8229 13.4873 26.0884 14.4884C25.5987 14.6678 25.219 14.828 25.219 14.828C24.902 14.962 24.5514 14.8167 24.4423 14.5047L24.1313 13.6256Z" fill="#80004F"/>
<path d="M33.9171 0.550162C30.0411 -0.972037 25.5977 0.772785 23.9927 4.44818C22.7675 7.25365 23.5517 10.3711 25.7136 12.369C26.3811 12.9851 27.1787 13.4949 28.0915 13.8551C30.2489 13.2701 32.5139 12.9646 34.7894 12.9646C35.0294 12.9646 35.2686 12.9681 35.5071 12.9745C35.5235 12.9752 35.5415 12.9759 35.5579 12.9766C36.3129 12.4427 36.97 11.7713 37.4813 10.9794C37.6877 10.6596 37.8715 10.3207 38.0278 9.9627C39.6328 6.28588 37.7923 2.07236 33.9171 0.550162Z" fill="#FFB900"/>
<path d="M33.5119 1.47822C32.7121 1.16343 31.8711 1.00391 31.0107 1.00391C28.3569 1.00391 25.9857 2.50767 24.9705 4.83244C24.3015 6.36173 24.3015 8.047 24.9705 9.577C25.3899 10.5348 26.0388 11.3601 26.8596 11.9982C27.3515 12.3789 27.9046 12.6944 28.5079 12.9312C29.0783 13.1553 29.6688 13.2999 30.2721 13.3644C31.2686 13.1857 32.2815 13.0702 33.2996 13.0113C34.48 12.593 35.5101 11.8585 36.2644 10.8886C36.5746 10.4895 36.8407 10.0506 37.0485 9.57629C38.4285 6.41987 36.8407 2.7863 33.5119 1.47822ZM36.1223 9.21399C35.851 9.83719 35.463 10.3895 34.9906 10.8539C33.9679 11.8599 32.5439 12.4562 31.0062 12.4562C30.2803 12.4562 29.5694 12.3208 28.8921 12.0549C28.6133 11.9457 28.3494 11.811 28.0967 11.6628C27.1152 11.0878 26.3475 10.2442 25.8967 9.21399C25.3316 7.91867 25.3316 6.49219 25.8967 5.19757C26.7564 3.228 28.765 1.95608 31.0114 1.95608C31.7388 1.95608 32.4512 2.09008 33.1284 2.35666C35.9467 3.46339 37.2885 6.5404 36.1223 9.21399Z" fill="#FFE57E"/>
<path d="M29.0212 7.77422C28.767 8.4981 29.084 9.24325 29.8898 9.56088C30.6202 9.84731 31.4155 9.61051 31.737 8.8767C32.0936 8.06136 31.6368 7.40555 30.9281 7.12621C30.434 6.93265 29.9302 6.96172 29.5676 7.12975L28.536 6.2343L30.8511 3.24023L34.6651 4.73833L34.1979 5.8089L31.2541 4.65112L30.0946 6.15347C30.5237 5.97622 31.133 6.02444 31.6263 6.2187C33.0123 6.7632 33.6559 7.97061 33.0497 9.35669C32.5069 10.6003 31.0433 11.2426 29.4316 10.6095C27.9275 10.0189 27.31 8.66613 27.6778 7.59272L29.0212 7.77422Z" fill="#FFE57E"/>
</svg>
