<svg width="375" height="326" viewBox="0 0 375 326" fill="none" xmlns="http://www.w3.org/2000/svg">
<path d="M408.988 794.999L708.059 794.999C737.321 794.999 886 794.999 886 794.999L886 382.821L840.111 382.821C814.839 382.821 794.887 362.248 794.887 337.693C794.887 312.474 774.271 292.565 749.664 292.565C746.588 292.565 648.697 292.26 645.805 291.681C623.728 291.681 609.545 277.252 609.545 247.437L609.545 244.916L609.545 199.789C609.545 174.571 588.928 154.662 564.321 154.662C539.049 154.662 519.098 134.088 519.098 109.533C519.098 84.3146 498.481 64.4051 473.874 64.4051C448.601 64.4051 428.65 84.9782 428.65 109.533L428.65 134.777L428.65 135.441C427.985 159.996 408.033 179.906 383.426 179.906C353.669 179.906 348.991 179.906 348.991 179.906C348.991 179.906 328.217 179.906 303.61 179.906C278.338 179.906 258.184 161.324 258.184 136.769C258.184 111.55 237.567 91.6404 212.96 91.6404C187.688 91.6404 167.736 71.0675 167.736 46.5124L167.736 45.1277C167.736 19.909 147.12 -4.02217e-05 122.512 -4.45242e-05C97.2403 -4.89429e-05 77.2884 20.5726 77.2884 45.1277L77.2884 63.7417C77.2884 88.9604 56.6718 108.87 32.0647 108.87C9.45276 108.87 -9.83383 91.6148 -13.1591 69.7143C-13.1591 68.3871 -13.1591 67.0597 -13.8242 65.7325C-13.8242 65.0688 -13.8242 63.7416 -13.8242 63.0779C-13.8242 37.8592 -34.4411 17.9501 -59.0481 17.9501L-229.887 17.95C-279.766 17.95 -321 58.4321 -321 108.869C-321 270.121 -319.93 795 -319.93 795L-294.204 795L-275.981 794.999L-240.607 794.999C-213.808 795 -189.317 794.999 -138.773 794.999C293.482 794.999 286.344 794.999 408.988 794.999Z" fill="#B0CB0B"/>
</svg>
