<svg width="26" height="26" viewBox="0 0 26 26" fill="none" xmlns="http://www.w3.org/2000/svg">
<path fill-rule="evenodd" clip-rule="evenodd" d="M10.8616 0.835446C10.942 0.35333 11.3592 0 11.848 0H14.1537C14.6426 0 15.0598 0.353497 15.1401 0.835757L15.5553 3.32919C16.434 3.56065 17.2654 3.9087 18.0319 4.35578L20.0895 2.88652C20.4873 2.60248 21.0321 2.64761 21.3778 2.99323L23.0082 4.62364C23.3539 4.96935 23.3989 5.51433 23.1147 5.91212L21.6451 7.96889C22.0922 8.73549 22.4403 9.56695 22.6718 10.4457L25.1646 10.8616C25.6467 10.942 26 11.3592 26 11.848V14.1537C26 14.6426 25.6465 15.0598 25.1642 15.1401L22.6716 15.5552C22.44 16.434 22.0918 17.2655 21.6445 18.0321L23.1137 20.0898C23.3978 20.4876 23.3526 21.0324 23.007 21.378L21.3766 23.0084C21.0309 23.3541 20.4859 23.3992 20.0881 23.1149L18.0307 21.6449C17.2645 22.0917 16.4335 22.4395 15.5553 22.6708L15.1401 25.1642C15.0598 25.6465 14.6426 26 14.1537 26H11.848C11.3592 26 10.942 25.6467 10.8616 25.1646L10.4455 22.6705C9.56728 22.4391 8.73631 22.0911 7.97013 21.6443L5.91187 23.1149C5.51408 23.3992 4.9691 23.3541 4.6234 23.0084L2.99299 21.378C2.64737 21.0324 2.60224 20.4876 2.88627 20.0898L4.3566 18.0306C3.90979 17.2645 3.56192 16.4337 3.33048 15.5555L0.835757 15.1401C0.353497 15.0598 0 14.6426 0 14.1537V11.848C0 11.3592 0.35333 10.942 0.835446 10.8616L3.33024 10.4454C3.56157 9.56731 3.90933 8.73648 4.35599 7.97039L2.8853 5.91212C2.60107 5.51433 2.64613 4.96935 2.99184 4.62364L4.62224 2.99323C4.96786 2.64761 5.51268 2.60248 5.91046 2.88652L7.96899 4.3564C8.73549 3.90921 9.56685 3.56106 10.4455 3.32949L10.8616 0.835446ZM13.001 18C15.7624 18 18.001 15.7614 18.001 13C18.001 10.2386 15.7624 8 13.001 8C10.2396 8 8.00098 10.2386 8.00098 13C8.00098 15.7614 10.2396 18 13.001 18Z" fill="#007AC4"/>
</svg>
