<svg width="44" height="50" viewBox="0 0 44 50" fill="none" xmlns="http://www.w3.org/2000/svg">
<path d="M38.6929 17.6943C38.0091 17.6943 37.345 17.8416 36.721 18.1326C36.5007 18.2348 34.3214 19.251 31.8448 20.4068C31.7723 20.396 31.7012 20.3921 31.6288 20.3841C33.258 18.3033 34.2304 15.6854 34.2304 12.8385C34.2304 12.4763 34.212 12.119 34.1806 11.7645C36.6771 11.3461 38.5778 9.1774 38.5778 6.56346C38.5778 3.65028 36.2164 1.28851 33.3035 1.28851C31.7354 1.28851 30.3266 1.97379 29.3613 3.05962C27.3071 1.5062 24.7498 0.583374 21.9756 0.583374C19.2019 0.583374 16.6444 1.5062 14.5908 3.05962C13.6241 1.97379 12.2167 1.28851 10.6486 1.28851C7.73497 1.28851 5.37356 3.65028 5.37356 6.56346C5.37356 9.1774 7.27502 11.3461 9.77067 11.7645C9.73935 12.119 9.72097 12.4763 9.72097 12.8385C9.72097 15.6736 10.6863 18.2822 12.3034 20.3588C12.2365 20.3735 12.1697 20.3882 12.1036 20.4062C9.62782 19.252 7.44779 18.2356 7.22804 18.1329C6.60326 17.8417 5.94004 17.6944 5.25556 17.6944C3.44659 17.6944 1.78392 18.7534 1.01909 20.3934C0.491654 21.5243 0.43622 22.7926 0.862712 23.966C1.2892 25.1386 2.14785 26.0749 3.27815 26.6023L3.76854 26.8299C4.92788 27.3685 8.15638 28.869 10.935 30.1633V35.4386C9.78707 34.2435 8.21969 33.5639 6.57841 33.5639C3.2525 33.5639 0.547089 36.2694 0.547089 39.5947V43.8936C0.547089 47.219 3.25242 49.9244 6.57841 49.9244C6.80728 49.9244 7.04895 49.9077 7.31913 49.8745C8.0861 49.8118 8.81822 49.5951 9.49284 49.2292C9.92213 48.9981 16.8839 45.3517 21.0862 43.0931C21.1296 43.0647 21.1737 43.0392 21.2191 43.0142C21.2604 42.9932 21.3016 42.9724 21.3443 42.9548C21.5376 42.873 21.7508 42.8277 21.974 42.8277C22.2057 42.8277 22.4254 42.8771 22.6251 42.964C22.6343 42.9682 22.6429 42.9739 22.6522 42.9776C22.7396 43.0181 22.8235 43.0663 22.9023 43.121L27.7832 45.8711C30.8866 47.5485 33.7243 49.0812 33.9972 49.2292C34.6725 49.5952 35.4046 49.8119 36.1722 49.8745C36.4424 49.9077 36.6841 49.9244 36.9129 49.9244C40.2381 49.9244 42.9436 47.219 42.9436 43.8936V39.5947C42.9436 36.2694 40.2381 33.5639 36.9129 33.5639C35.4757 33.5639 34.1009 34.0801 33.0134 35.0054V30.1735L36.4494 28.5705C38.6445 27.5467 40.4699 26.6959 40.6703 26.6023C41.8005 26.0748 42.6591 25.1386 43.0856 23.966C43.5122 22.7926 43.4566 21.5243 42.9293 20.3934C42.1645 18.7534 40.5011 17.6943 38.6929 17.6943Z" fill="#FFB900"/>
<path d="M13.1464 13.4024C13.1464 14.7353 14.2268 15.8163 15.5596 15.8163C16.8931 15.8163 17.9736 14.7353 17.9736 13.4024C17.9736 12.0689 16.8931 10.9885 15.5596 10.9885C14.2267 10.9885 13.1464 12.0689 13.1464 13.4024Z" fill="#863D13"/>
<path d="M30.7245 13.4024C30.7245 14.7353 29.6442 15.8163 28.3106 15.8163C26.9771 15.8163 25.8967 14.7353 25.8967 13.4024C25.8967 12.0689 26.9771 10.9885 28.3106 10.9885C29.6442 10.9885 30.7245 12.0689 30.7245 13.4024Z" fill="#863D13"/>
<path d="M26.0942 23.1389C26.0942 23.1389 23.9863 24.0994 23.8761 24.1409C23.7659 24.1825 23.6607 24.1512 23.6265 24.1237C23.1638 23.7491 22.5767 23.5235 21.9355 23.5235C21.3007 23.5235 20.7193 23.7444 20.2595 24.1117C20.2196 24.1426 20.1365 24.1921 19.9886 24.1384C19.8408 24.0841 17.7773 23.1389 17.7773 23.1389C16.5376 22.5796 15.5232 23.3384 15.5232 24.825V27.6285C15.5232 29.1155 16.5376 29.875 17.7773 29.3146C17.7773 29.3146 20.0079 28.311 20.0703 28.2784C20.1321 28.2471 20.2004 28.2797 20.2239 28.2987C20.6895 28.6833 21.2844 28.9151 21.9355 28.9151C22.5831 28.9151 23.1766 28.6849 23.6408 28.3039C23.6664 28.2832 23.7397 28.2528 23.8121 28.2846C23.8846 28.3167 26.0942 29.3145 26.0942 29.3145C27.3338 29.8749 28.3474 29.1154 28.3474 27.6285V24.825C28.3474 23.3384 27.3338 22.5796 26.0942 23.1389Z" fill="#E6007E"/>
<path d="M21.9356 18.9517C20.8211 18.9517 19.8031 18.339 19.2786 17.3516C19.1229 17.0604 19.2338 16.6989 19.5245 16.5442C19.8159 16.3892 20.1778 16.4994 20.3327 16.7909C20.6498 17.387 21.2639 17.7569 21.9356 17.7569C22.6074 17.7569 23.2215 17.3871 23.5386 16.7909C23.6935 16.4998 24.0553 16.3895 24.3468 16.5442C24.6375 16.6989 24.7477 17.0604 24.5928 17.3516C24.0681 18.339 23.0502 18.9517 21.9356 18.9517Z" fill="#863D13"/>
<path d="M5.97232 36.1312C4.06307 36.1312 2.50922 37.6843 2.50922 39.5944V43.8932C2.50922 45.8028 4.06307 47.3564 5.97232 47.3564C7.88231 47.3564 9.43543 45.8027 9.43543 43.8932V39.5944C9.43543 37.6843 7.88224 36.1312 5.97232 36.1312Z" fill="#863D13"/>
<path d="M37.6793 36.1312C39.5885 36.1312 41.1438 37.6843 41.1438 39.5944V43.8932C41.1438 45.8028 39.5885 47.3564 37.6793 47.3564C35.7699 47.3564 34.2162 45.8027 34.2162 43.8932V39.5944C34.2162 37.6843 35.7699 36.1312 37.6793 36.1312Z" fill="#863D13"/>
</svg>
