<svg width="104" height="65" viewBox="0 0 104 65" fill="none" xmlns="http://www.w3.org/2000/svg">
<path d="M102.559 27.5052C100.954 22.2554 96.5164 18.3418 90.9462 18.1509C90.5685 18.1509 90.1909 18.0555 89.7188 18.0555C85.0927 18.0555 81.033 20.4418 78.5784 24.069C78.4839 24.1644 78.3895 24.3553 78.2007 24.3553C78.0119 24.3553 77.8231 24.1644 77.8231 24.069C75.3684 20.4418 71.3087 18.0555 66.6826 18.0555C66.3049 18.0555 65.9273 18.0555 65.4552 18.1509C60.6403 18.3418 56.675 21.2054 54.6924 25.4053C53.2762 28.2688 53.0874 31.037 53.0874 32.2778C53.0874 36.5732 54.2203 40.6776 56.4862 44.4957C59.7906 50.0319 65.3608 54.9954 71.1199 59.3862C74.4243 61.9634 76.5957 63.2043 78.2007 63.2043C79.8057 63.2043 81.7883 61.868 85.2815 59.3862C91.135 55.0909 96.7052 50.0319 99.9152 44.4957C102.181 40.6776 103.314 36.5732 103.314 32.2778C103.314 31.037 103.125 29.3188 102.559 27.5052Z" fill="#E6007E"/>
<path d="M72.7973 30.3372C72.7029 29.3827 71.9476 28.619 71.0979 28.5236C71.0035 28.5236 71.0035 28.5236 71.0035 28.5236C70.9091 28.5236 70.5314 28.5236 70.2482 28.5236H67.8879C65.7165 28.5236 64.8668 26.3282 64.4891 25.4691C64.1115 24.6101 62.5065 22.0329 62.2233 21.5556C61.0903 19.6466 60.0518 18.3102 60.7127 16.1148C61.3736 13.824 63.1674 12.1058 65.3388 11.5331C65.7165 11.4377 65.9053 11.4377 65.9053 11.4377C66.2829 11.4377 66.3773 11.0559 66.2829 10.7695C66.2829 10.7695 66.1885 10.5786 65.9053 10.1968C64.6779 8.09686 62.6953 6.47417 60.2406 5.80601C55.7089 4.46968 50.9883 6.76053 48.9113 10.865C48.7225 11.2468 48.6281 11.4377 48.6281 11.4377C48.5337 11.724 48.156 11.9149 47.7784 11.8195C47.7784 11.8195 47.5896 11.724 47.2119 11.6286C44.8516 10.9604 42.3025 10.5786 39.659 10.4832C39.3758 10.4832 39.0926 10.4832 38.7149 10.4832C29.2738 10.4832 20.9657 14.683 15.8675 20.9829C15.5842 21.3647 14.5457 22.8919 14.1681 23.1783C13.7904 23.4646 13.4128 23.5601 13.0352 23.5601C12.7519 23.5601 12.4687 23.5601 12.1855 23.4646C11.9966 23.4646 11.9966 23.1783 12.1855 23.0828C13.7904 22.1283 14.7345 20.2193 14.6401 18.3102C14.4513 15.5421 12.1855 13.5376 9.54195 13.824C8.22019 13.9194 6.99285 14.5876 6.14315 15.6376C5.48228 16.4966 5.10463 17.4512 5.01022 18.5966C5.01022 18.7875 4.8214 19.0738 4.63258 18.692C4.34934 18.3102 4.06611 17.833 3.78288 17.2603C3.31082 16.1148 2.46113 15.5421 1.61143 15.8285C0.478496 16.2103 0.667318 17.7375 0.950551 18.5966C2.08348 21.651 4.06611 22.9874 6.33197 23.6555C6.5208 23.751 6.70962 23.8464 6.80403 23.9419C7.08726 24.2282 7.37049 24.5146 7.65373 24.801C8.50343 25.5646 9.82518 26.3282 11.7134 26.71C11.9966 26.71 12.4687 26.8055 12.1855 27.5691C11.3358 30.0508 10.7693 32.7235 10.7693 35.3961C10.7693 43.3186 14.829 49.4276 19.2663 53.4366C19.4551 53.532 19.9272 54.0093 19.9272 54.0093C20.116 54.2002 20.2104 54.582 20.0216 55.0592C19.9271 55.2501 18.511 58.6864 18.511 58.6864C17.9445 60.1182 18.6054 61.7409 20.0216 62.3136L25.6862 64.6999C27.1024 65.2726 28.7074 64.6044 29.2738 63.1727C29.2738 63.1727 30.3124 60.6909 30.5956 59.9273C30.69 59.6409 30.9732 59.5455 31.2565 59.5455C31.2565 59.5455 31.2565 59.5455 31.4453 59.6409C33.2391 60.0228 36.1658 60.3091 38.2429 60.4046C38.4317 60.4046 38.8093 60.4046 38.8093 60.4046C40.5087 60.4046 43.0578 60.2137 44.474 60.0228C44.7572 60.0228 44.7572 60.0228 44.7572 60.0228C45.1349 59.9273 45.3237 60.1182 45.4181 60.3091C45.5125 60.5 46.6454 63.2681 46.6454 63.2681C47.2119 64.6999 48.8169 65.3681 50.2331 64.7954L55.8977 62.409C57.3139 61.8363 57.9748 60.2137 57.4083 58.7819C57.4083 58.7819 56.3698 56.3956 56.181 55.7274C56.0865 55.4411 56.181 55.1547 56.3698 55.0592C56.3698 55.0592 56.3698 55.0592 56.5586 54.9638C57.7859 54.0093 59.5797 52.482 60.9015 50.9548C61.1847 50.573 61.468 50.2866 61.6568 50.0003C63.8282 47.0413 64.9612 43.8914 67.9823 43.8914H70.2482C70.6258 43.8914 71.0035 43.8914 71.0979 43.8914C71.0979 43.8914 71.0979 43.8914 71.1923 43.8914C71.9476 43.7005 72.6085 43.1277 72.7973 42.3641C72.7973 42.2687 72.7973 42.2687 72.7973 42.2687C72.7973 42.0778 72.7973 41.8869 72.7973 41.7914C72.7973 41.696 72.7973 41.3142 72.7973 40.9324V31.1008C72.7973 30.8144 72.7973 30.4326 72.7973 30.3372ZM10.2972 20.5056C9.35312 20.9829 8.59784 20.5056 8.40901 19.742C8.12578 18.692 8.59784 17.5466 9.63636 17.2603C10.5805 16.9739 11.5246 17.6421 11.5246 18.692C11.4302 19.5511 10.8637 20.2193 10.2972 20.5056Z" fill="#009EE2"/>
<path d="M58.5406 29.4779C59.6356 29.4779 60.5232 28.5804 60.5232 27.4734C60.5232 26.3663 59.6356 25.4689 58.5406 25.4689C57.4456 25.4689 56.558 26.3663 56.558 27.4734C56.558 28.5804 57.4456 29.4779 58.5406 29.4779Z" fill="#1E6E32"/>
<path d="M26.9143 16.3062C26.8199 15.9243 27.0087 15.5425 27.3864 15.3516C27.3864 15.3516 27.764 15.1607 28.2361 14.9698C31.6349 13.6335 35.2225 12.9653 38.9045 12.9653C39.1877 12.9653 39.471 12.9653 39.7542 12.9653C40.6983 12.9653 41.6424 13.0608 42.6809 13.1562C43.0586 13.2517 43.153 13.2517 43.153 13.2517C43.5306 13.3471 43.8139 13.6335 43.8139 14.0153C43.8139 14.3971 43.7195 14.8744 43.7195 15.2562C43.7195 15.638 43.3418 15.8289 42.9642 15.8289C42.9642 15.8289 41.076 15.5425 39.7542 15.5425C39.471 15.5425 39.1877 15.5425 38.9045 15.5425C35.5057 15.5425 32.2013 16.2107 29.1802 17.3561C28.6137 17.547 28.2361 17.7379 28.2361 17.7379C27.8584 17.9288 27.4808 17.7379 27.3864 17.3561L26.9143 16.3062Z" fill="#1E6E32"/>
<path d="M37.8647 0.652131C33.5218 -1.16146 28.6124 0.938487 26.7242 5.32928C25.3081 8.6701 26.2522 12.3927 28.6124 14.779C29.3677 15.5426 30.2174 16.1154 31.2559 16.5926C33.7106 15.9244 36.2597 15.5426 38.8088 15.5426C39.0921 15.5426 39.3753 15.5426 39.6585 15.5426C39.6585 15.5426 39.6585 15.5426 39.7529 15.5426C40.6026 14.8745 41.3579 14.1109 41.9244 13.1563C42.1132 12.7745 42.3964 12.3927 42.4908 11.9155C44.2847 7.52467 42.302 2.46572 37.8647 0.652131Z" fill="#FFCB00"/>
<path d="M37.4872 1.79708C36.543 1.41527 35.5989 1.22437 34.6548 1.22437C31.6337 1.22437 28.9902 3.03795 27.8572 5.80606C27.1019 7.61965 27.1019 9.62414 27.8572 11.4377C28.3293 12.5832 29.0846 13.5377 29.9343 14.3013C30.5007 14.7785 31.0672 15.1604 31.8225 15.4467C32.4834 15.7331 33.1443 15.924 33.8051 15.924C34.9381 15.7331 36.071 15.5422 37.2039 15.5422C38.5257 15.0649 39.6586 14.2058 40.5083 12.965C40.8859 12.4877 41.1692 11.915 41.358 11.4377C42.963 7.61965 41.1692 3.32431 37.4872 1.79708ZM40.4139 11.0559C40.1307 11.8195 39.6586 12.4877 39.1865 13.0604C38.0536 14.3013 36.4486 14.9695 34.7492 14.9695C33.8995 14.9695 33.1443 14.7785 32.389 14.4922C32.1057 14.3967 31.8225 14.2058 31.5393 14.0149C30.4063 13.3468 29.5566 12.2968 29.0846 11.0559C28.4237 9.52869 28.4237 7.81055 29.0846 6.28332C30.0287 3.89702 32.2946 2.36979 34.8436 2.36979C35.6933 2.36979 36.4486 2.56069 37.2039 2.84705C40.2251 4.08793 41.7356 7.81055 40.4139 11.0559Z" fill="#FFE57E"/>
<path d="M32.389 9.24245C32.1058 10.1015 32.4834 10.9606 33.3331 11.3424C34.1828 11.7242 35.0325 11.4378 35.4102 10.4833C35.7878 9.52881 35.3157 8.76519 34.466 8.38339C33.8996 8.19248 33.3331 8.19248 32.9555 8.38339L31.8225 7.33341L34.466 3.70624L38.7145 5.51983L38.1481 6.7607L34.8437 5.32892L33.5219 7.14251C33.994 6.95161 34.6549 6.95161 35.2213 7.23796C36.7319 7.90613 37.4872 9.33791 36.8263 10.9606C36.2599 12.4878 34.5605 13.2514 32.7667 12.4878C31.0673 11.8197 30.4064 10.197 30.784 8.86065L32.389 9.24245Z" fill="#FFE57E"/>
<path d="M58.5406 29.4779C59.6356 29.4779 60.5232 28.5804 60.5232 27.4734C60.5232 26.3663 59.6356 25.4689 58.5406 25.4689C57.4456 25.4689 56.558 26.3663 56.558 27.4734C56.558 28.5804 57.4456 29.4779 58.5406 29.4779Z" fill="#003E80"/>
<path d="M26.9143 16.3062C26.8199 15.9243 27.0087 15.5425 27.3864 15.3516C27.3864 15.3516 27.764 15.1607 28.2361 14.9698C31.6349 13.6335 35.2225 12.9653 38.9045 12.9653C39.1877 12.9653 39.471 12.9653 39.7542 12.9653C40.6983 12.9653 41.6424 13.0608 42.6809 13.1562C43.0586 13.2517 43.153 13.2517 43.153 13.2517C43.5306 13.3471 43.8139 13.6335 43.8139 14.0153C43.8139 14.3971 43.7195 14.8744 43.7195 15.2562C43.7195 15.638 43.3418 15.8289 42.9642 15.8289C42.9642 15.8289 41.076 15.5425 39.7542 15.5425C39.471 15.5425 39.1877 15.5425 38.9045 15.5425C35.5057 15.5425 32.2013 16.2107 29.1802 17.3561C28.6137 17.547 28.2361 17.7379 28.2361 17.7379C27.8584 17.9288 27.4808 17.7379 27.3864 17.3561L26.9143 16.3062Z" fill="#003E80"/>
<path d="M37.8647 0.652131C33.5218 -1.16146 28.6124 0.938487 26.7242 5.32928C25.3081 8.6701 26.2522 12.3927 28.6124 14.779C29.3677 15.5426 30.2174 16.1154 31.2559 16.5926C33.7106 15.9244 36.2597 15.5426 38.8088 15.5426C39.0921 15.5426 39.3753 15.5426 39.6585 15.5426C39.6585 15.5426 39.6585 15.5426 39.7529 15.5426C40.6026 14.8745 41.3579 14.1109 41.9244 13.1563C42.1132 12.7745 42.3964 12.3927 42.4908 11.9155C44.2847 7.52467 42.302 2.46572 37.8647 0.652131Z" fill="#FFB900"/>
<path d="M37.4872 1.79708C36.543 1.41527 35.5989 1.22437 34.6548 1.22437C31.6337 1.22437 28.9902 3.03795 27.8572 5.80606C27.1019 7.61965 27.1019 9.62414 27.8572 11.4377C28.3293 12.5832 29.0846 13.5377 29.9343 14.3013C30.5007 14.7785 31.0672 15.1604 31.8225 15.4467C32.4834 15.7331 33.1443 15.924 33.8051 15.924C34.9381 15.7331 36.071 15.5422 37.2039 15.5422C38.5257 15.0649 39.6586 14.2058 40.5083 12.965C40.8859 12.4877 41.1692 11.915 41.358 11.4377C42.963 7.61965 41.1692 3.32431 37.4872 1.79708ZM40.4139 11.0559C40.1307 11.8195 39.6586 12.4877 39.1865 13.0604C38.0536 14.3013 36.4486 14.9695 34.7492 14.9695C33.8995 14.9695 33.1443 14.7785 32.389 14.4922C32.1057 14.3967 31.8225 14.2058 31.5393 14.0149C30.4063 13.3468 29.5566 12.2968 29.0846 11.0559C28.4237 9.52869 28.4237 7.81055 29.0846 6.28332C30.0287 3.89702 32.2946 2.36979 34.8436 2.36979C35.6933 2.36979 36.4486 2.56069 37.2039 2.84705C40.2251 4.08793 41.7356 7.81055 40.4139 11.0559Z" fill="#FFE57E"/>
<path d="M32.389 9.24245C32.1058 10.1015 32.4834 10.9606 33.3331 11.3424C34.1828 11.7242 35.0325 11.4378 35.4102 10.4833C35.7878 9.52881 35.3157 8.76519 34.466 8.38339C33.8996 8.19248 33.3331 8.19248 32.9555 8.38339L31.8225 7.33341L34.466 3.70624L38.7145 5.51983L38.1481 6.7607L34.8437 5.32892L33.5219 7.14251C33.994 6.95161 34.6549 6.95161 35.2213 7.23796C36.7319 7.90613 37.4872 9.33791 36.8263 10.9606C36.2599 12.4878 34.5605 13.2514 32.7667 12.4878C31.0673 11.8197 30.4064 10.197 30.784 8.86065L32.389 9.24245Z" fill="#FFE57E"/>
</svg>
